<svg id="calculadora" xmlns="http://www.w3.org/2000/svg" viewBox="0 0 512 512">
<path fill="white" d="M457 0H55A55.06 55.06 0 0 0 0 55v402a55.06 55.06 0 0 0 55 55h402a55.06 55.06 0 0 0 55-55V55a55.06 55.06 0 0 0-55-55Zm25 55v186H271V30h186a25 25 0 0 1 25 25ZM55 30h186v211H30V55a25 25 0 0 1 25-25ZM30 457V271h211v211H55a25 25 0 0 1-25-25Zm427 25H271V271h211v186a25 25 0 0 1-25 25Z"/>
<path fill="white" d="M76 151h45v45a15 15 0 0 0 30 0v-45h45a15 15 0 0 0 0-30h-45V76a15 15 0 0 0-30 0v45H76a15 15 0 0 0 0 30zm240 0h120a15 15 0 0 0 0-30H316a15 15 0 0 0 0 30zM156.71 376l39.4-39.39a15 15 0 0 0-21.22-21.22l-39.39 39.4-39.39-39.4a15 15 0 0 0-21.22 21.22l39.4 39.39-39.4 39.39a15 15 0 0 0 21.22 21.22l39.39-39.4 39.39 39.4a15 15 0 0 0 21.22-21.22zm219.79 44.5a15 15 0 0 0-15 15v1a15 15 0 0 0 30 0v-1a15 15 0 0 0-15-15zm0-88a15 15 0 0 0 15-15v-1a15 15 0 0 0-30 0v1a15 15 0 0 0 15 15zm60 29h-120a15 15 0 0 0 0 30h120a15 15 0 0 0 0-30z"/>
</svg>